:SAMPLES-PER-SECOND 24
:FULLY-SPECIFIED
:DEGREES
141
root  -4.4947 41.2151 36.9095 -60.7741 38.5875 -73.4075
RightUpLeg  -31.2855 -14.8193 -32.8365
RightLeg  8.00004 -15.5523 -7.94146
RightFoot  -2.11764 -0.178379 2.00771
RightToes  -2.08645e-008 3.77894e-005 6.81332e-007
Spine  11.4162 -0.456146 -0.488235
Spine1  2.0462 -5.14387 26.2555
HEad  -26.3623 -25.3972 22.3688
LeftShoulder1  6.19805 -12.0594 -33.8203
LeftArm  7.17897 -2.89102 -27.6812
LeftForeArm  139.798 -78.4808 -125.54
LeftHand  -0.273266 -3.83037 3.70644
RightShoulder  3.99856 6.68735 33.3504
RightArm  -1.3414 -21.8666 23.6874
RightForeArm  130.127 79.5123 116.081
RightHand  -0.395945 7.41886 -3.9416
LeftUpLeg  -11.7978 7.10698 41.9951
LeftLeg  12.4225 23.736 9.63437
LeftFoot  -3.19136 -0.517488 7.52984
LeftToes  1.24767e-006 1.47042e-008 1.32732e-009
142
root  -4.75555 41.291 37.1923 -64.7558 43.5637 -77.3029
RightUpLeg  -30.4477 -11.0029 -34.7566
RightLeg  21.7644 -27.9669 -11.5161
RightFoot  -2.44406 0.00720475 -0.317481
RightToes  -2.08645e-008 3.77894e-005 6.81332e-007
Spine  12.5223 -0.543762 -2.77912
Spine1  1.70334 -5.43375 25.0689
HEad  -30.4398 -29.1535 24.4621
LeftShoulder1  6.64972 -12.5981 -35.2732
LeftArm  6.28689 4.65975 -23.1814
LeftForeArm  128.773 -79.5694 -115.223
LeftHand  -0.245447 -3.82136 3.36023
RightShoulder  3.97844 6.65646 33.272
RightArm  1.84047 -21.9655 23.9692
RightForeArm  140.554 78.4835 125.691
RightHand  -0.226209 7.85207 -2.34993
LeftUpLeg  -13.8782 10.8225 37.5182
LeftLeg  10.0349 15.7423 7.86664
LeftFoot  -3.25473 -0.398257 5.88181
LeftToes  1.24767e-006 1.47042e-008 1.32732e-009
143
root  -4.95182 41.1198 37.3446 -70.8411 47.951 -82.4496
RightUpLeg  -29.5656 -14.4917 -29.8116
RightLeg  32.6498 -23.8901 -15.7787
RightFoot  -2.88043 0.0403686 -0.817637
RightToes  -2.08645e-008 3.77894e-005 6.81332e-007
Spine  14.51 -0.472516 -2.65196
Spine1  1.51114 -5.22034 23.155
HEad  -35.0406 -33.4073 25.8117
LeftShoulder1  6.84304 -12.8827 -35.7243
LeftArm  6.49381 9.65377 -19.2265
LeftForeArm  115.424 -80.2546 -102.823
LeftHand  -0.278048 -4.0034 3.70753
RightShoulder  3.95882 6.63148 33.1751
RightArm  4.38607 -22.8845 23.3197
RightForeArm  143.34 77.472 131.076
RightHand  -0.168683 8.0319 -1.83103
LeftUpLeg  -16.4401 6.59962 35.0731
LeftLeg  12.5851 15.0523 6.6216
LeftFoot  -4.60645 -0.300713 5.57889
LeftToes  1.24767e-006 1.47042e-008 1.32732e-009
144
root  -4.93422 40.8782 37.6345 -75.7765 51.3555 -86.5025
RightUpLeg  -28.0901 -14.2325 -24.1802
RightLeg  38.1747 -19.4935 -15.9429
RightFoot  -4.02631 -0.0416568 0.223672
RightToes  -2.08645e-008 3.77894e-005 6.81332e-007
Spine  14.3893 0.0926492 -2.186
Spine1  2.74168 -4.45295 20.7965
HEad  -38.642 -37.9051 26.2893
LeftShoulder1  6.72522 -12.845 -35.1115
LeftArm  6.87203 13.5648 -16.6527
LeftForeArm  104.553 -80.5385 -90.8911
LeftHand  -0.296932 -3.78886 4.02063
RightShoulder  3.96898 6.64618 33.2186
RightArm  6.33878 -23.3802 22.1559
RightForeArm  140.854 77.5579 130.095
RightHand  -0.142905 8.28179 -1.59125
LeftUpLeg  -18.2677 1.84236 33.231
LeftLeg  15.7125 16.496 6.30982
LeftFoot  -5.89296 -0.271868 6.45253
LeftToes  1.24767e-006 1.47042e-008 1.32732e-009
145
root  -4.70847 40.7533 38.1168 -78.7524 54.4656 -89.544
RightUpLeg  -26.2994 -13.3321 -16.5417
RightLeg  37.6111 -17.583 -14.2563
RightFoot  -6.08111 -0.182359 3.00924
RightToes  -2.08645e-008 3.77894e-005 6.81332e-007
Spine  11.3931 1.32558 -4.83297
Spine1  5.26946 -3.95208 21.3921
HEad  -40.7428 -42.3525 26.4636
LeftShoulder1  6.69525 -12.8192 -34.9955
LeftArm  6.10463 17.9876 -14.7423
LeftForeArm  98.8683 -80.5548 -83.594
LeftHand  -0.27534 -3.47634 3.85877
RightShoulder  3.94926 6.62087 33.1221
RightArm  7.70694 -22.9407 21.744
RightForeArm  133.335 78.9818 120.678
RightHand  -0.136924 8.59608 -1.52008
LeftUpLeg  -19.3514 0.402919 30.7997
LeftLeg  16.8441 15.8133 6.24833
LeftFoot  -6.59214 -0.235701 6.62815
LeftToes  1.24767e-006 1.47042e-008 1.32732e-009
146
root  -4.32938 40.8127 38.5438 -81.6143 57.3159 -92.7036
RightUpLeg  -23.43 -14.3979 -6.94074
RightLeg  31.1408 -18.196 -11.664
RightFoot  -4.85171 -0.251734 3.96207
RightToes  -2.08645e-008 3.77894e-005 6.81332e-007
Spine  8.47597 2.09908 -8.37751
Spine1  6.67102 -3.97137 23.4436
HEad  -40.9632 -45.7224 26.9036
LeftShoulder1  6.5568 -12.6406 -34.5953
LeftArm  4.02977 24.1012 -13.1957
LeftForeArm  98.3451 -80.5445 -83.0391
LeftHand  -0.27585 -3.53583 3.84303
RightShoulder  4.02638 6.68006 33.6495
RightArm  8.91624 -23.0374 22.7464
RightForeArm  121.334 80.1169 107.357
RightHand  -0.0686167 8.83411 -0.949548
LeftUpLeg  -18.9723 0.923122 27.8485
LeftLeg  15.2549 13.5169 5.86284
LeftFoot  -6.59468 -0.186934 5.48221
LeftToes  1.24767e-006 1.47042e-008 1.32732e-009
147
root  -3.88545 40.8229 38.9946 -86.8501 59.8555 -99.1049
RightUpLeg  -20.7484 -21.0007 3.88198
RightLeg  20.7854 -14.549 -6.4173
RightFoot  -2.45684 -0.463244 5.67916
RightToes  -2.08645e-008 3.77894e-005 6.81332e-007
Spine  5.83859 1.47927 -10.4902
Spine1  6.67236 -4.59605 23.8739
HEad  -40.7763 -47.9067 26.9547
LeftShoulder1  6.29097 -12.3943 -33.5668
LeftArm  2.21578 30.2289 -11.4088
LeftForeArm  101.275 -80.5226 -87.8083
LeftHand  -0.28879 -3.70035 3.94997
RightShoulder  4.09456 6.72536 34.139
RightArm  9.60821 -25.0989 25.2388
RightForeArm  120.26 80.1145 106.88
RightHand  0.0346606 8.99136 -0.112526
LeftUpLeg  -19.6788 0.770269 25.1048
LeftLeg  13.7227 10.7817 5.38762
LeftFoot  -6.8215 -0.119859 4.07761
LeftToes  1.24767e-006 1.47042e-008 1.32732e-009
148
root  -3.39191 40.6093 39.453 -93.3238 63.3368 -106.406
RightUpLeg  -18.0862 -21.3027 8.98719
RightLeg  13.9368 -7.59901 1.08754
RightFoot  -2.56165 -1.39976 17.8697
RightToes  -2.08645e-008 3.77894e-005 6.81332e-007
Spine  2.94017 0.466208 -12.5103
Spine1  7.48338 -5.08964 22.21
HEad  -41.3969 -49.6424 25.981
LeftShoulder1  6.16596 -12.3338 -32.9319
LeftArm  1.34462 34.2486 -9.20985
LeftForeArm  105.603 -80.4197 -94.0557
LeftHand  -0.278643 -3.78079 3.79199
RightShoulder  4.11709 6.72485 34.3591
RightArm  10.3978 -26.854 27.5323
RightForeArm  131.309 79.3863 117.428
RightHand  0.305947 9.47712 1.97878
LeftUpLeg  -21.1575 -1.04408 21.8907
LeftLeg  15.2851 9.89 4.8064
LeftFoot  -8.55 -0.0311505 3.38753
LeftToes  1.24767e-006 1.47042e-008 1.32732e-009
149
root  -2.93667 40.2243 39.6682 -100.019 67.487 -112.304
RightUpLeg  -17.7952 -22.5306 12.9298
RightLeg  14.8125 6.13466 4.40879
RightFoot  -2.77285 -1.91075 24.9702
RightToes  -2.08645e-008 3.77894e-005 6.81332e-007
Spine  1.31088 -0.0390795 -12.6855
Spine1  8.41471 -4.75042 18.9496
HEad  -41.1267 -51.4903 23.7713
LeftShoulder1  6.17747 -12.3785 -32.8944
LeftArm  0.277981 36.352 -7.99819
LeftForeArm  109.04 -80.3183 -98.1754
LeftHand  -0.317187 -3.735 4.29812
RightShoulder  4.1512 6.73138 34.6634
RightArm  12.5754 -25.8068 28.2295
RightForeArm  137.143 78.8784 122.57
RightHand  0.187797 9.3994 1.069
LeftUpLeg  -21.6017 -2.28967 17.9286
LeftLeg  19.3043 9.2897 3.88775
LeftFoot  -11.7277 0.0709616 1.65655
LeftToes  1.24767e-006 1.47042e-008 1.32732e-009
